Coordinates
version=1
nRows=12
nColumns=38
inDegrees=no

Units are S.I. units (second, meters, Newtons, ...)
If the header above contains a line with 'inDegrees', this indicates whether rotational values are in degrees (yes) or radians (no).

endheader
time	pelvis_tilt	pelvis_list	pelvis_rotation	pelvis_tx	pelvis_ty	pelvis_tz	hip_flexion_r	hip_adduction_r	hip_rotation_r	knee_angle_r	ankle_angle_r	subtalar_angle_r	mtp_angle_r	hip_flexion_l	hip_adduction_l	hip_rotation_l	knee_angle_l	ankle_angle_l	subtalar_angle_l	mtp_angle_l	lumbar_extension	lumbar_bending	lumbar_rotation	arm_flex_r	arm_add_r	arm_rot_r	elbow_flex_r	pro_sup_r	wrist_flex_r	wrist_dev_r	arm_flex_l	arm_add_l	arm_rot_l	elbow_flex_l	pro_sup_l	wrist_flex_l	wrist_dev_l
1.39167	-0.223963	-0.163447	-0.117904	1.14958	1.00661	-0.320843	1.01633	0.120423	-0.285336	-1.05018	0.238589	0.273409	0	-0.239083	-0.116794	-0.371624	-0.352109	-0.273291	0.546983	0	0.0159531	0.213627	-0.186546	-0.842686	-0.184088	-0.530549	1.24963	1.12921	0	0	-0.0723186	-0.325977	0.0724592	2.69409	1.61148	0	0
1.4	-0.232838	-0.15726	-0.129052	1.15145	1.00836	-0.320944	1.0026	0.129928	-0.298641	-0.930017	0.231464	0.324272	0	-0.248679	-0.101829	-0.345045	-0.3739	-0.319661	0.5376	0	0.027397	0.214336	-0.188537	-0.858159	-0.186888	-0.533675	1.26757	1.1326	0	0	-0.0779466	-0.325263	0.0846527	2.71815	1.62452	0	0
1.40833	-0.238111	-0.146995	-0.136106	1.15299	1.00952	-0.321288	0.983783	0.133819	-0.317096	-0.815318	0.221213	0.375615	0	-0.252998	-0.0832903	-0.311143	-0.41205	-0.350867	0.532191	0	0.0344254	0.209209	-0.191517	-0.871028	-0.187055	-0.534384	1.28324	1.13701	0	0	-0.0856144	-0.326353	0.095996	2.73275	1.63613	0	0
1.41667	-0.239635	-0.133636	-0.139409	1.15423	1.01014	-0.321839	0.960573	0.132904	-0.340839	-0.708656	0.207179	0.425368	0	-0.252444	-0.062695	-0.273809	-0.46639	-0.36927	0.529251	0	0.0369047	0.199227	-0.195	-0.881033	-0.184358	-0.533024	1.2964	1.14104	0	0	-0.0956605	-0.328682	0.106076	2.73722	1.64399	0	0
1.425	-0.237502	-0.118484	-0.139681	1.15523	1.01027	-0.322537	0.933782	0.128429	-0.369204	-0.612463	0.189073	0.471256	0	-0.247553	-0.0418305	-0.237267	-0.536019	-0.377863	0.526407	0	0.0348724	0.185876	-0.198315	-0.88805	-0.178949	-0.529868	1.30702	1.14337	0	0	-0.108412	-0.331519	0.114551	2.73142	1.64594	0	0
1.43333	-0.231978	-0.103003	-0.137874	1.15602	1.00997	-0.323302	0.904244	0.12189	-0.400658	-0.528823	0.167099	0.510935	0	-0.239043	-0.0225748	-0.205383	-0.619345	-0.379653	0.520856	0	0.0284932	0.170961	-0.200714	-0.892071	-0.171321	-0.525122	1.31525	1.143	0	0	-0.124079	-0.334057	0.121186	2.71571	1.64045	0	0
1.44167	-0.223424	-0.0886341	-0.135034	1.15664	1.00927	-0.324054	0.872721	0.114843	-0.432797	-0.459315	0.142019	0.542132	0	-0.227809	-0.00668851	-0.181159	-0.71421	-0.377185	0.509938	0	0.0180293	0.156333	-0.201453	-0.893169	-0.162211	-0.51893	1.32133	1.13951	0	0	-0.14269	-0.335547	0.12586	2.69084	1.62704	0	0
1.45	-0.212254	-0.0765995	-0.132165	1.15713	1.00818	-0.324721	0.839865	0.108718	-0.462552	-0.404939	0.115144	0.562897	0	-0.214841	0.00439282	-0.166389	-0.818109	-0.372222	0.491616	0	0.00383878	0.143611	-0.199877	-0.891446	-0.152467	-0.511379	1.32556	1.13315	0	0	-0.164068	-0.335416	0.128538	2.65778	1.60654	0	0
1.45833	-0.19891	-0.0677577	-0.130103	1.15752	1.00667	-0.325249	0.806228	0.104625	-0.486717	-0.366149	0.088276	0.572163	0	-0.201072	0.00970984	-0.161533	-0.928468	-0.365581	0.464844	0	-0.013605	0.133981	-0.195495	-0.886993	-0.142919	-0.502494	1.32818	1.12479	0	0	-0.187843	-0.333341	0.129258	2.61756	1.5811	0	0
1.46667	-0.183876	-0.0625338	-0.1294	1.15783	1.00471	-0.325607	0.772328	0.103219	-0.502537	-0.342971	0.0636508	0.570103	0	-0.187194	0.00883591	-0.165829	-1.04291	-0.35718	0.429792	0	-0.033687	0.128099	-0.188045	-0.879859	-0.134282	-0.492246	1.32937	1.11576	0	0	-0.213493	-0.32927	0.128118	2.5711	1.55399	0	0
1.475	-0.167696	-0.0609206	-0.130264	1.1581	1.00224	-0.325792	0.738719	0.104657	-0.508212	-0.335158	0.0439504	0.558187	0	-0.173509	0.00185131	-0.17756	-1.15945	-0.346281	0.387852	0	-0.055638	0.126102	-0.177541	-0.87003	-0.127098	-0.480545	1.32921	1.10755	0	0	-0.240398	-0.323378	0.125283	2.5191	1.52902	0	0
1.48333	-0.150986	-0.0625373	-0.132549	1.15832	0.999224	-0.325828	0.706051	0.108637	-0.5032	-0.342315	0.0322994	0.538901	0	-0.159819	-0.0107364	-0.194385	-1.27654	-0.331837	0.341446	0	-0.0785496	0.127686	-0.164263	-0.857422	-0.121713	-0.46725	1.32773	1.10149	0	0	-0.26789	-0.31601	0.120985	2.46201	1.50994	0	0
